<svg width="132" height="178" viewBox="0 0 132 178" fill="none" xmlns="http://www.w3.org/2000/svg">
<path d="M159.856 98.7357L86.8679 25.7473C85.7125 24.5919 83.8393 24.5919 82.6839 25.7473L9.69547 98.7357C8.54009 99.8911 8.5401 101.764 9.69547 102.92L82.6839 175.908C83.8393 177.063 85.7125 177.063 86.8678 175.908L159.856 102.92C161.012 101.764 161.012 99.8911 159.856 98.7357Z" stroke="#450E5E" stroke-width="1.77" stroke-miterlimit="10"/>
<path d="M86.2829 3.40575C87.2233 3.40575 87.9857 2.64334 87.9857 1.70288C87.9857 0.762409 87.2233 0 86.2829 0C85.3424 0 84.58 0.762409 84.58 1.70288C84.58 2.64334 85.3424 3.40575 86.2829 3.40575Z" fill="#68606C"/>
<path d="M106.425 21.8448C105.754 22.5156 104.67 22.5156 104.017 21.8448C103.346 21.174 103.346 20.0903 104.017 19.4367C104.688 18.7659 105.771 18.7659 106.425 19.4367C107.096 20.1075 107.096 21.1912 106.425 21.8448Z" fill="#68606C"/>
<path d="M125.346 40.7828C124.675 41.4536 123.591 41.4536 122.937 40.7828C122.284 40.112 122.267 39.0283 122.937 38.3747C123.608 37.7039 124.692 37.7039 125.346 38.3747C126.016 39.0455 126.016 40.1292 125.346 40.7828Z" fill="#68606C"/>
<path d="M70.5787 19.8324C69.9078 20.5032 68.8242 20.5032 68.1706 19.8324C67.517 19.1616 67.4998 18.0779 68.1706 17.4243C68.8414 16.7707 69.925 16.7535 70.5787 17.4243C71.2495 18.0951 71.2495 19.1788 70.5787 19.8324Z" fill="#68606C"/>
<path d="M89.4994 38.7704C88.8286 39.4412 87.745 39.4412 87.0913 38.7704C86.4377 38.0996 86.4205 37.0159 87.0913 36.3623C87.7622 35.7087 88.8458 35.6915 89.4994 36.3623C90.1702 37.0331 90.1702 38.1168 89.4994 38.7704Z" fill="#68606C"/>
<path d="M108.437 57.691C107.766 58.3618 106.683 58.3618 106.029 57.691C105.358 57.0202 105.358 55.9365 106.029 55.2829C106.7 54.6121 107.784 54.6121 108.437 55.2829C109.108 55.9537 109.108 57.0374 108.437 57.691Z" fill="#68606C"/>
<path d="M127.358 76.6118C126.687 77.2826 125.604 77.2826 124.95 76.6118C124.296 75.941 124.279 74.8573 124.95 74.2037C125.621 73.5329 126.705 73.5329 127.358 74.2037C128.029 74.8745 128.029 75.9582 127.358 76.6118Z" fill="#68606C"/>
<path d="M53.6532 36.7407C52.9824 37.4115 51.8987 37.4115 51.2451 36.7407C50.5743 36.0698 50.5743 34.9862 51.2451 34.3326C51.9159 33.6618 52.9996 33.6618 53.6532 34.3326C54.324 35.0034 54.324 36.087 53.6532 36.7407Z" fill="#68606C"/>
<path d="M72.5911 55.6786C71.9203 56.3494 70.8366 56.3494 70.183 55.6786C69.5294 55.0078 69.5122 53.9241 70.183 53.2705C70.8538 52.6169 71.9375 52.5997 72.5911 53.2705C73.2619 53.9413 73.2619 55.025 72.5911 55.6786Z" fill="#68606C"/>
<path d="M91.5118 74.5993C90.841 75.2702 89.7574 75.2702 89.1038 74.5993C88.4329 73.9285 88.4329 72.8449 89.1038 72.1912C89.7746 71.5204 90.8582 71.5204 91.5118 72.1912C92.1827 72.8621 92.1827 73.9457 91.5118 74.5993Z" fill="#68606C"/>
<path d="M110.45 93.5373C109.779 94.2081 108.695 94.2081 108.042 93.5373C107.388 92.8665 107.371 91.7828 108.042 91.1292C108.713 90.4584 109.796 90.4584 110.45 91.1292C111.121 91.8 111.121 92.8837 110.45 93.5373Z" fill="#68606C"/>
<path d="M129.371 112.458C128.7 113.129 127.616 113.129 126.962 112.458C126.309 111.787 126.292 110.704 126.962 110.05C127.633 109.396 128.717 109.379 129.371 110.05C130.041 110.721 130.041 111.804 129.371 112.458Z" fill="#68606C"/>
<path d="M36.7449 53.6661C36.0741 54.3369 34.9904 54.3369 34.3368 53.6661C33.666 52.9953 33.666 51.9116 34.3368 51.258C35.0076 50.5872 36.0913 50.5872 36.7449 51.258C37.4157 51.9288 37.4157 53.0125 36.7449 53.6661Z" fill="#68606C"/>
<path d="M55.6828 72.5868C55.012 73.2576 53.9284 73.2576 53.2748 72.5868C52.6039 71.916 52.6039 70.8323 53.2748 70.1787C53.9456 69.5251 55.0292 69.5079 55.6828 70.1787C56.3537 70.8495 56.3537 71.9332 55.6828 72.5868Z" fill="#68606C"/>
<path d="M74.6036 91.5247C73.9328 92.1956 72.8491 92.1956 72.1955 91.5247C71.5247 90.8539 71.5247 89.7703 72.1955 89.1166C72.8663 88.4458 73.95 88.4458 74.6036 89.1166C75.2744 89.7875 75.2744 90.8711 74.6036 91.5247Z" fill="#68606C"/>
<path d="M93.5243 110.446C92.8535 111.116 91.7699 111.116 91.1162 110.446C90.4454 109.775 90.4454 108.691 91.1162 108.037C91.7871 107.367 92.8707 107.367 93.5243 108.037C94.1952 108.708 94.1952 109.792 93.5243 110.446Z" fill="#68606C"/>
<path d="M112.462 129.383C111.791 130.054 110.708 130.054 110.054 129.383C109.383 128.713 109.383 127.629 110.054 126.975C110.725 126.304 111.809 126.304 112.462 126.975C113.133 127.646 113.133 128.73 112.462 129.383Z" fill="#68606C"/>
<path d="M19.8366 70.5744C19.1658 71.2452 18.0822 71.2452 17.4285 70.5744C16.7577 69.9036 16.7577 68.82 17.4285 68.1663C18.0994 67.4955 19.183 67.4955 19.8366 68.1663C20.4902 68.8372 20.5074 69.9208 19.8366 70.5744Z" fill="#68606C"/>
<path d="M38.7573 89.5123C38.0865 90.1832 37.0029 90.1832 36.3492 89.5123C35.6784 88.8415 35.6784 87.7579 36.3492 87.1042C37.0201 86.4506 38.1037 86.4334 38.7573 87.1042C39.411 87.7751 39.4282 88.8587 38.7573 89.5123Z" fill="#68606C"/>
<path d="M57.6953 108.433C57.0245 109.104 55.9408 109.104 55.2872 108.433C54.6164 107.762 54.6164 106.679 55.2872 106.025C55.958 105.354 57.0417 105.354 57.6953 106.025C58.3662 106.696 58.3662 107.779 57.6953 108.433Z" fill="#68606C"/>
<path d="M76.6161 127.371C75.9453 128.042 74.8616 128.042 74.208 127.371C73.5371 126.7 73.5371 125.617 74.208 124.963C74.8788 124.292 75.9625 124.292 76.6161 124.963C77.2697 125.634 77.2869 126.717 76.6161 127.371Z" fill="#68606C"/>
<path d="M95.554 146.292C94.8832 146.963 93.7995 146.963 93.1459 146.292C92.4751 145.621 92.4751 144.537 93.1459 143.884C93.8167 143.213 94.9004 143.213 95.554 143.884C96.2248 144.554 96.2248 145.638 95.554 146.292Z" fill="#68606C"/>
<path d="M2.9112 87.4999C2.24038 88.1707 1.15675 88.1707 0.50312 87.4999C-0.167707 86.829 -0.167707 85.7454 0.50312 85.0917C1.17395 84.4209 2.25758 84.4209 2.9112 85.0917C3.56483 85.7626 3.58203 86.8462 2.9112 87.4999Z" fill="#68606C"/>
<path d="M21.8492 106.421C21.1783 107.091 20.0947 107.091 19.4411 106.421C18.7703 105.75 18.7703 104.666 19.4411 104.012C20.1119 103.359 21.1955 103.342 21.8492 104.012C22.5028 104.683 22.52 105.767 21.8492 106.421Z" fill="#68606C"/>
<path d="M40.7699 125.358C40.0991 126.029 39.0154 126.029 38.3618 125.358C37.691 124.688 37.691 123.604 38.3618 122.95C39.0326 122.28 40.1163 122.28 40.7699 122.95C41.4407 123.621 41.4407 124.705 40.7699 125.358Z" fill="#68606C"/>
<path d="M59.7079 144.279C59.037 144.95 57.9534 144.95 57.2998 144.279C56.629 143.608 56.629 142.525 57.2998 141.871C57.9706 141.2 59.0542 141.2 59.7079 141.871C60.3615 142.542 60.3787 143.626 59.7079 144.279Z" fill="#68606C"/>
<path d="M78.6286 163.217C77.9578 163.888 76.8741 163.888 76.2205 163.217C75.5497 162.546 75.5497 161.463 76.2205 160.809C76.8913 160.138 77.975 160.138 78.6286 160.809C79.2822 161.48 79.2994 162.563 78.6286 163.217Z" fill="#68606C"/>
</svg>
