<svg width="103" height="61" viewBox="0 0 103 61" fill="none" xmlns="http://www.w3.org/2000/svg">
<path d="M35.496 28.824V31H24.36C23.272 31 22.536 30.7867 22.152 30.36C21.8107 29.976 21.64 29.2507 21.64 28.184V27C21.64 26.232 21.736 25.7093 21.928 25.432C22.2053 25.0267 22.8347 24.5253 23.816 23.928L30.856 19.544V17.176H24.584V19.032H22.536V15H30.536C31.624 15 32.3813 15.2347 32.808 15.704C33.256 16.1733 33.48 16.856 33.48 17.752V28.824H35.496ZM30.856 22.104L24.2 26.264V28.824H30.856V22.104ZM49.1333 31H41.1653C39.6293 31 38.7439 30.424 38.5093 29.272C38.4239 28.9307 38.3813 28.568 38.3813 28.184V17.816C38.3813 16.92 38.6266 16.2267 39.1173 15.736C39.6293 15.224 40.3973 14.968 41.4213 14.968H49.1333V19.032H46.9573V17.176H40.9413V28.824H46.9573V26.968H49.1333V31ZM56.5503 9.176V15H59.1423V17.304H56.5503V28.824H59.5903V31H56.9023C55.9423 31 55.2276 30.7547 54.7583 30.264C54.2889 29.752 54.0543 28.888 54.0543 27.672V17.304H51.6863V15H54.0543V9.176H56.5503ZM66.8025 28.824H68.8825V31H62.1625V28.824H64.1785V17.176H62.1625V15H66.8025V28.824ZM65.4905 9.112C65.9385 9.112 66.3118 9.28267 66.6105 9.624C66.9305 9.944 67.0905 10.3387 67.0905 10.808C67.0905 11.256 66.9305 11.64 66.6105 11.96C66.3118 12.2587 65.9278 12.408 65.4585 12.408C65.0105 12.408 64.6265 12.2587 64.3065 11.96C64.0078 11.64 63.8585 11.256 63.8585 10.808C63.8585 10.3387 64.0185 9.944 64.3385 9.624C64.6585 9.28267 65.0425 9.112 65.4905 9.112ZM74.4123 31C73.3243 31 72.5563 30.7547 72.1083 30.264C71.6603 29.752 71.4363 29.048 71.4363 28.152V17.848C71.4363 16.9947 71.6283 16.312 72.0123 15.8C72.4176 15.2667 73.2176 15 74.4123 15H80.3323C81.5056 15 82.2949 15.2667 82.7003 15.8C83.1056 16.312 83.3083 16.9947 83.3083 17.848V28.152C83.3083 29.048 83.0843 29.752 82.6363 30.264C82.1883 30.7547 81.4203 31 80.3323 31H74.4123ZM74.0283 28.824H80.7163V17.176H74.0283V28.824ZM96.9458 14.68C98.6098 14.68 99.4418 15.5013 99.4418 17.144V28.824H101.49V31H95.3138V28.824H96.8498V16.92L90.4818 20.92V28.824H92.0498V31H85.8738V28.824H87.8898V17.144H85.8738V15H90.4818V18.328L95.7938 15C96.1351 14.7867 96.5191 14.68 96.9458 14.68Z" fill="#030099"/>
<path d="M6.336 39.304V50.824H8.928V53H1.28V50.824H3.84V39.304H1.28V37H3.84V32.328C3.84 31.112 4.07467 30.2587 4.544 29.768C5.01333 29.256 5.728 29 6.688 29H9.344V31.176H6.336V37H8.928V39.304H6.336ZM16.865 50.824H18.945V53H12.225V50.824H14.241V39.176H12.225V37H16.865V50.824ZM15.553 31.112C16.001 31.112 16.3743 31.2827 16.673 31.624C16.993 31.944 17.153 32.3387 17.153 32.808C17.153 33.256 16.993 33.64 16.673 33.96C16.3743 34.2587 15.9903 34.408 15.521 34.408C15.073 34.408 14.689 34.2587 14.369 33.96C14.0703 33.64 13.921 33.256 13.921 32.808C13.921 32.3387 14.081 31.944 14.401 31.624C14.721 31.2827 15.105 31.112 15.553 31.112ZM33.6588 39.176V57.256C33.6588 58.152 33.4348 58.8347 32.9868 59.304C32.5601 59.7733 31.8028 60.008 30.7148 60.008H22.9708V55.656H25.1468V57.8H31.0348V49.448L25.5628 52.904C25.0934 53.1813 24.5708 53.32 23.9948 53.32C23.4401 53.32 22.9388 53.1067 22.4908 52.68C22.0428 52.232 21.8188 51.688 21.8188 51.048V39.816C21.8188 38.7707 21.9574 38.088 22.2348 37.768C22.7041 37.256 23.4721 37 24.5388 37H35.6748V39.176H33.6588ZM31.0348 39.176H24.3148V51.08L31.0348 46.856V39.176ZM42.7928 53.064C41.1288 53.064 40.2968 52.2427 40.2968 50.6V39.144H38.2488V36.968H42.8888V50.824L49.2568 46.824V39.144H47.6888V36.968H51.8488V50.824H53.8647V53H49.2568V49.416L43.9448 52.744C43.6034 52.9573 43.2194 53.064 42.7928 53.064ZM66.1323 37C67.7963 37 68.6283 37.8213 68.6283 39.464V42.312H66.0363V39.208L61.0443 42.376V50.824H62.6123V53H56.4363V50.824H58.4523V39.144H56.4363V36.968H61.0443V39.784L64.9803 37.32C65.3216 37.1067 65.7056 37 66.1323 37ZM71.5063 40.136C71.5063 38.024 72.6049 36.968 74.8023 36.968H80.2103C81.2556 36.968 82.0129 37.1707 82.4823 37.576C82.9516 37.9813 83.1863 38.728 83.1863 39.816V42.792L74.0663 48.552V50.824H80.6583V48.968H83.1863V50.664C83.1863 51.304 82.9836 51.8587 82.5783 52.328C82.1943 52.776 81.5436 53 80.6263 53H74.0663C73.1489 53 72.4876 52.776 72.0823 52.328C71.6983 51.8587 71.5063 51.304 71.5063 50.664V40.136ZM74.0663 45.96L80.6263 41.832V39.176H74.0663V45.96ZM95.8543 50.184C95.8543 52.0613 94.9369 53 93.1023 53H85.3583V48.168H87.5343V50.824H93.2943V48.168L88.0463 44.872C87.5129 44.5307 87.0543 44.2533 86.6703 44.04C86.2863 43.8267 85.9663 43.6133 85.7103 43.4C85.2409 42.9733 85.0063 42.3973 85.0063 41.672V39.848C85.0063 38.952 85.1556 38.3333 85.4543 37.992C86.0303 37.3307 86.8836 37 88.0143 37H95.4703V41.8H93.2943V39.176H87.5343V41.864L92.9743 45.256C93.4223 45.5333 93.8169 45.7787 94.1583 45.992C94.5209 46.184 94.8196 46.3867 95.0543 46.6C95.5876 47.048 95.8543 47.5813 95.8543 48.2V50.184Z" fill="#450E5E"/>
<line x1="37" y1="59.5" x2="101" y2="59.5" stroke="#030099"/>
<line x1="2" y1="15.5" x2="19" y2="15.5" stroke="#450E5E"/>
</svg>
